<?xml version="1.0" encoding="UTF-8" standalone="no"?>
<svg
   xmlns:dc="http://purl.org/dc/elements/1.1/"
   xmlns:cc="http://creativecommons.org/ns#"
   xmlns:rdf="http://www.w3.org/1999/02/22-rdf-syntax-ns#"
   xmlns:svg="http://www.w3.org/2000/svg"
   xmlns="http://www.w3.org/2000/svg"
   xmlns:xlink="http://www.w3.org/1999/xlink"
   xmlns:sodipodi="http://sodipodi.sourceforge.net/DTD/sodipodi-0.dtd"
   xmlns:inkscape="http://www.inkscape.org/namespaces/inkscape"
   version="1.1"
   id="brandmark"
   x="0px"
   y="0px"
   viewBox="0 0 544.41 460.78"
   style="enable-background:new 0 0 544.41 460.78;"
   xml:space="preserve"
   sodipodi:docname="tax-diner.svg"
   inkscape:version="0.92.0 r15299"><metadata
     id="metadata6903"><rdf:RDF><cc:Work
         rdf:about=""><dc:format>image/svg+xml</dc:format><dc:type
           rdf:resource="http://purl.org/dc/dcmitype/StillImage" /><dc:title></dc:title></cc:Work></rdf:RDF></metadata><defs
     id="defs6901" /><sodipodi:namedview
     pagecolor="#ffffff"
     bordercolor="#666666"
     borderopacity="1"
     objecttolerance="10"
     gridtolerance="10"
     guidetolerance="10"
     inkscape:pageopacity="0"
     inkscape:pageshadow="2"
     inkscape:window-width="1366"
     inkscape:window-height="705"
     id="namedview6899"
     showgrid="false"
     inkscape:zoom="0.79"
     inkscape:cx="372.8913"
     inkscape:cy="225.97928"
     inkscape:window-x="-8"
     inkscape:window-y="-8"
     inkscape:window-maximized="1"
     inkscape:current-layer="brandmark" /><style
     type="text/css"
     id="style6317"> 
	.st0{fill:#00715C;}
	.st1{fill:#FAA824;}
	.st2{fill:#FFFFFF;}
	.st3{fill:#BD1E2D;}
</style><polygon
     id="background"
     class="st0"
     points="0,131.13 295.69,126.68 213.87,460.78 22.26,460.78 "
     style="fill:#803300" /><g
     id="idealsign"><polygon
       class="st1"
       points="135.96,392.28 150.84,165.32 544.41,161.65 500.81,425.73 87.11,428.18  "
       id="polygon6320" /><polygon
       class="st2"
       points="164.45,203.09 506.31,199.81 474.59,390.19 152.19,391.9  "
       id="polygon6322" /><g
       id="ideal"><text
         xml:space="preserve"
         style="font-style:normal;font-weight:normal;font-size:32.81673431px;line-height:20.5104599px;font-family:sans-serif;letter-spacing:0px;word-spacing:0px;fill:#6700e5;fill-opacity:1;stroke:none;stroke-width:1"
         x="197.17601"
         y="276.82193"
         id="text4525"
         transform="matrix(1.0049722,6.3794512e-4,-0.02010923,0.99503963,0,0)"><tspan
           sodipodi:role="line"
           id="tspan4523"
           x="197.17601"
           y="276.82193"
           style="font-style:normal;font-variant:normal;font-weight:normal;font-stretch:normal;font-size:88px;font-family:Turnpike;-inkscape-font-specification:Turnpike;fill:#841e05;fill-opacity:1;stroke-width:1">Tax</tspan></text>
</g><g
       id="diner"
       transform="translate(6,10)"><g
         id="g6351"><g
           id="g6345"><path
             class="st3"
             d="m 236.37,284.94 c -15.58,-10.69 -46.02,-2.9 -51.22,-1.32 -0.48,0.15 -1.91,1.4 -1.91,1.4 l -1.43,11.88 1.05,2 c 0,0 14.82,-10.93 16.5,-7.06 0.96,1.94 -5.8,11.81 -5.8,11.81 l -30.18,52.37 1.05,2 c 0,0 40.48,10.54 60.43,-15.55 19.95,-26.09 28.51,-45.86 11.51,-57.53 m -9.33,25.77 c -3.76,7.2 -12.66,24.29 -19.4,30.56 -6.75,6.27 -14.44,8.27 -16.81,7.86 -2.37,-0.41 -4.66,-3.69 3.32,-15.71 l 19.71,-37.51 c 0,0 6.03,-9.26 11.85,-4.73 5.82,4.54 5.1,12.33 1.33,19.53"
             id="path6337"
             inkscape:connector-curvature="0"
             style="fill:#bd1e2d" /><path
             class="st3"
             d="m 226.21,347.01 -0.18,6.62 9.32,-5.35 c 0,0 5.12,-4.19 6.24,1.7 1.11,5.89 1.73,11.43 13.45,8.1 11.73,-3.33 27.06,-14.21 27.06,-14.21 l 1.8,-13.03 c 0,0 -18.37,19.61 -21.99,15.23 -3.62,-4.38 6.86,-17.94 7.13,-18.61 0.27,-0.67 11.03,-21.19 11.03,-21.19 l 0.07,-2.46 -15.77,2.03 c 0,0.01 -8,28.66 -38.16,41.17"
             id="path6339"
             inkscape:connector-curvature="0"
             style="fill:#bd1e2d" /><path
             class="st3"
             d="m 279.34,359.24 c 0,0 -1.69,-1.15 -1.31,-1.91 3.55,-7.17 24.04,-44.24 24.87,-52.05 l 15.47,-2.12 1.35,1.82 c 0,0 -2.97,5.95 -0.16,5.94 2.8,-0.01 9.46,-10.53 20.34,-7.51 10.87,3.01 1.89,20.77 -0.75,27.5 -2.65,6.72 -7.96,17.7 -3.63,17.82 4.33,0.12 9.52,-9.68 9.52,-9.68 0,0 4.79,4.97 0.94,9.28 -3.86,4.31 -14.61,12.33 -21.48,12.14 -6.88,-0.19 -8.02,-4.87 -7.82,-12.35 -0.06,-13.34 15.5,-29.39 7.6,-29.6 -7.89,-0.21 -19.47,13.4 -26.83,40.38 0.15,0.43 -18.11,0.34 -18.11,0.34"
             id="path6341"
             inkscape:connector-curvature="0"
             style="fill:#bd1e2d" /><path
             class="st3"
             d="m 462.91,309.16 c -1.19,-3.34 -1.3,1.11 -4.24,1.28 -2.93,0.18 -19.93,2.64 -20.51,-11.52 -0.09,-4.01 -1.93,-2.21 -4.87,-1.6 -3.37,-0.09 -2.28,1.79 -5.57,8.26 -3.3,6.47 -29.88,44.47 -49.66,45.72 -10.98,0.84 -10.39,-6.66 -10.38,-11.62 0,0 27.97,2.29 36.74,-20.53 2.42,-9.23 -0.68,-12.44 -0.68,-12.44 -4.31,-4.55 -17.95,-9.98 -35.73,6.86 -17.79,16.84 -16.43,37.01 -8.75,45.11 7.68,8.11 32,-0.78 45.6,-13.66 13.6,-12.88 23.21,-28.67 23.21,-28.67 l 8.85,5.21 c 0,0 -16.94,15.84 -17.35,30.74 -0.41,14.9 20.17,12.53 20.17,12.53 0,0 18.85,-9.17 17.73,-14.81 -1.12,-5.63 -1.89,-5.53 -1.89,-5.53 0,0 -6.26,10.02 -16.83,9.73 -10.57,-0.29 8.37,-31.24 24.01,-39.47 1.68,-1.09 1.33,-2.25 0.15,-5.59 m -84.26,8.65 c 3.33,-2.91 10.11,-12.18 15.53,-6.46 5.42,5.72 -2.03,11.47 -4.71,14.01 -2.68,2.54 -13.44,9.25 -17.08,5.14 -3.66,-4.1 6.26,-12.69 6.26,-12.69"
             id="path6343"
             inkscape:connector-curvature="0"
             style="fill:#bd1e2d" /></g><g
           id="g6349"><path
             class="st3"
             d="m 289.29,285.56 c -0.15,5.34 -4.69,9.55 -10.16,9.4 -5.47,-0.15 -9.78,-4.6 -9.63,-9.94 0.15,-5.35 4.69,-9.55 10.16,-9.41 5.47,0.16 9.78,4.61 9.63,9.95"
             id="path6347"
             inkscape:connector-curvature="0"
             style="fill:#bd1e2d" /></g></g></g></g><g
     id="eatsign"><path
       id="arrowend"
       class="st1"
       d="m 90.39,81.88 79.27,0.68 C 175.83,49.3 186.19,15.9 188.16,10.82 190.44,4.94 191.37,2 180.64,6.8 169.9,11.59 131.39,39.39 131.39,39.39 125.19,33.28 86.54,4.23 81.09,1.53 c -5.44,-2.69 -6.72,-2.3 -4.38,4.97 1.47,4.55 8.13,37.79 13.68,75.38 z"
       inkscape:connector-curvature="0"
       style="fill:#faa824" /><g
       id="eat"><g
         id="g6366"><g
           id="g6364"><defs
             id="defs6357"><polygon
               id="SVGID_1_"
               class="st3"
               points="17.89,81.92 28.17,200.18 201.61,203.13 236.3,80.25 "
               style="fill:#bd1e2d" /></defs><use
             xlink:href="#SVGID_1_"
             style="overflow:visible;fill:#bd1e2d"
             id="use6359"
             x="0"
             y="0"
             width="100%"
             height="100%" /><clipPath
             id="SVGID_2_"><use
               xlink:href="#SVGID_1_"
               style="overflow:visible"
               id="use6361"
               x="0"
               y="0"
               width="100%"
               height="100%" /></clipPath></g></g><g
         id="g6376"><g
           id="g6374"><polygon
             class="st2"
             points="42.04,164.44 84.57,164.52 85.09,152.4 83.8,151.18 57.77,151.66 58.09,139.9 86.67,140.68 86.99,128.92 85.71,127.7 59.68,128.18 60.01,116.06 88.41,116.83 90.18,105.11 88.9,103.89 46.59,103.92 40.75,163.22 "
             id="polygon6368"
             style="fill:#ffffff" /><path
             class="st2"
             d="m 133.96,106.31 -1.29,-1.22 -14.75,0.79 -24.97,56.9 1.28,1.23 14.07,0.38 7.63,-15.67 18.81,0.51 4.01,14.8 1.28,1.22 15.71,0.43 z m -16.22,30.5 7.65,-18.93 7.54,19.34 z"
             id="path6370"
             inkscape:connector-curvature="0"
             style="fill:#ffffff" /><polygon
             class="st2"
             points="174.41,121.85 171.98,162.73 173.26,163.95 185.99,164.3 187.15,122.03 205.65,122.54 206.04,108.28 204.75,107.05 157.32,106.95 155.65,120.15 156.93,121.38 "
             id="polygon6372"
             style="fill:#ffffff" /></g></g></g><path
       id="arrowhead"
       class="st1"
       d="m 125.72,244.52 c 7.26,-16.54 14.81,-39.72 21.45,-63.59 L 93.59,179.46 C 83.16,222.88 49.55,253.05 49.55,253.05 L 32.26,233.91 20.16,334.97 124.6,300.92 95.98,292.5 c 0.01,-0.01 13,-9.83 29.74,-47.98 z"
       inkscape:connector-curvature="0"
       style="fill:#faa824" /><g
       id="bulbs"><g
         id="g6390"><g
           id="g6388"><defs
             id="defs6381"><path
               id="SVGID_3_"
               class="st2"
               d="m 86.44,20.85 c -0.08,2.95 2.25,5.41 5.2,5.49 2.95,0.08 5.41,-2.25 5.49,-5.2 0.08,-2.95 -2.25,-5.41 -5.2,-5.49 -2.95,-0.09 -5.41,2.24 -5.49,5.2"
               inkscape:connector-curvature="0"
               style="fill:#ffffff" /></defs><use
             xlink:href="#SVGID_3_"
             class="st2"
             style="overflow:visible;fill:#ffffff"
             id="use6383"
             x="0"
             y="0"
             width="100%"
             height="100%" /><clipPath
             id="SVGID_4_"><use
               xlink:href="#SVGID_3_"
               style="overflow:visible"
               id="use6385"
               x="0"
               y="0"
               width="100%"
               height="100%" /></clipPath></g></g><g
         id="g6402"><g
           id="g6400"><defs
             id="defs6393"><path
               id="SVGID_5_"
               class="st2"
               d="m 108.34,52.31 c -0.08,2.95 2.25,5.41 5.2,5.49 2.95,0.08 5.41,-2.25 5.49,-5.2 0.08,-2.95 -2.25,-5.41 -5.2,-5.5 -2.95,-0.08 -5.41,2.25 -5.49,5.21"
               inkscape:connector-curvature="0"
               style="fill:#ffffff" /></defs><use
             xlink:href="#SVGID_5_"
             class="st2"
             style="overflow:visible;fill:#ffffff"
             id="use6395"
             x="0"
             y="0"
             width="100%"
             height="100%" /><clipPath
             id="SVGID_6_"><use
               xlink:href="#SVGID_5_"
               style="overflow:visible"
               id="use6397"
               x="0"
               y="0"
               width="100%"
               height="100%" /></clipPath></g></g><g
         id="g6414"><g
           id="g6412"><defs
             id="defs6405"><path
               id="SVGID_7_"
               class="st2"
               d="m 102.9,35.05 c -0.08,2.95 2.25,5.41 5.2,5.49 2.95,0.08 5.41,-2.25 5.49,-5.2 0.08,-2.95 -2.25,-5.41 -5.2,-5.5 -2.95,-0.08 -5.41,2.25 -5.49,5.21"
               inkscape:connector-curvature="0"
               style="fill:#ffffff" /></defs><use
             xlink:href="#SVGID_7_"
             class="st2"
             style="overflow:visible;fill:#ffffff"
             id="use6407"
             x="0"
             y="0"
             width="100%"
             height="100%" /><clipPath
             id="SVGID_8_"><use
               xlink:href="#SVGID_7_"
               style="overflow:visible"
               id="use6409"
               x="0"
               y="0"
               width="100%"
               height="100%" /></clipPath></g></g><g
         id="g6426"><g
           id="g6424"><defs
             id="defs6417"><path
               id="SVGID_9_"
               class="st2"
               d="m 88.73,34.66 c -0.08,2.95 2.25,5.41 5.2,5.49 2.96,0.08 5.41,-2.25 5.49,-5.2 0.08,-2.95 -2.25,-5.41 -5.2,-5.49 -2.95,-0.08 -5.41,2.25 -5.49,5.2"
               inkscape:connector-curvature="0"
               style="fill:#ffffff" /></defs><use
             xlink:href="#SVGID_9_"
             class="st2"
             style="overflow:visible;fill:#ffffff"
             id="use6419"
             x="0"
             y="0"
             width="100%"
             height="100%" /><clipPath
             id="SVGID_10_"><use
               xlink:href="#SVGID_9_"
               style="overflow:visible"
               id="use6421"
               x="0"
               y="0"
               width="100%"
               height="100%" /></clipPath></g></g><g
         id="g6438"><g
           id="g6436"><defs
             id="defs6429"><path
               id="SVGID_11_"
               class="st2"
               d="m 92.01,51.86 c -0.08,2.95 2.25,5.41 5.2,5.49 2.96,0.08 5.41,-2.25 5.49,-5.2 0.08,-2.95 -2.25,-5.41 -5.2,-5.49 -2.95,-0.08 -5.41,2.25 -5.49,5.2"
               inkscape:connector-curvature="0"
               style="fill:#ffffff" /></defs><use
             xlink:href="#SVGID_11_"
             class="st2"
             style="overflow:visible;fill:#ffffff"
             id="use6431"
             x="0"
             y="0"
             width="100%"
             height="100%" /><clipPath
             id="SVGID_12_"><use
               xlink:href="#SVGID_11_"
               style="overflow:visible"
               id="use6433"
               x="0"
               y="0"
               width="100%"
               height="100%" /></clipPath></g></g><g
         id="g6450"><g
           id="g6448"><defs
             id="defs6441"><path
               id="SVGID_13_"
               class="st2"
               d="m 141.11,53.2 c -0.08,2.95 2.25,5.41 5.2,5.49 2.96,0.08 5.41,-2.25 5.5,-5.2 0.08,-2.95 -2.25,-5.41 -5.2,-5.49 -2.96,-0.08 -5.42,2.25 -5.5,5.2"
               inkscape:connector-curvature="0"
               style="fill:#ffffff" /></defs><use
             xlink:href="#SVGID_13_"
             class="st2"
             style="overflow:visible;fill:#ffffff"
             id="use6443"
             x="0"
             y="0"
             width="100%"
             height="100%" /><clipPath
             id="SVGID_14_"><use
               xlink:href="#SVGID_13_"
               style="overflow:visible"
               id="use6445"
               x="0"
               y="0"
               width="100%"
               height="100%" /></clipPath></g></g><g
         id="g6462"><g
           id="g6460"><defs
             id="defs6453"><path
               id="SVGID_15_"
               class="st2"
               d="m 144.53,36.18 c -0.08,2.96 2.25,5.42 5.2,5.5 2.96,0.08 5.41,-2.25 5.5,-5.2 0.08,-2.95 -2.25,-5.41 -5.2,-5.5 -2.96,-0.08 -5.42,2.25 -5.5,5.2"
               inkscape:connector-curvature="0"
               style="fill:#ffffff" /></defs><use
             xlink:href="#SVGID_15_"
             class="st2"
             style="overflow:visible;fill:#ffffff"
             id="use6455"
             x="0"
             y="0"
             width="100%"
             height="100%" /><clipPath
             id="SVGID_16_"><use
               xlink:href="#SVGID_15_"
               style="overflow:visible"
               id="use6457"
               x="0"
               y="0"
               width="100%"
               height="100%" /></clipPath></g></g><g
         id="g6474"><g
           id="g6472"><defs
             id="defs6465"><path
               id="SVGID_17_"
               class="st2"
               d="m 160.48,36.62 c -0.08,2.95 2.25,5.41 5.2,5.5 2.95,0.08 5.41,-2.25 5.49,-5.2 0.08,-2.95 -2.25,-5.41 -5.2,-5.49 -2.95,-0.09 -5.41,2.24 -5.49,5.19"
               inkscape:connector-curvature="0"
               style="fill:#ffffff" /></defs><use
             xlink:href="#SVGID_17_"
             class="st2"
             style="overflow:visible;fill:#ffffff"
             id="use6467"
             x="0"
             y="0"
             width="100%"
             height="100%" /><clipPath
             id="SVGID_18_"><use
               xlink:href="#SVGID_17_"
               style="overflow:visible"
               id="use6469"
               x="0"
               y="0"
               width="100%"
               height="100%" /></clipPath></g></g><g
         id="g6486"><g
           id="g6484"><defs
             id="defs6477"><path
               id="SVGID_19_"
               class="st2"
               d="m 157.06,53.64 c -0.08,2.95 2.25,5.41 5.2,5.49 2.95,0.08 5.41,-2.25 5.49,-5.2 0.08,-2.95 -2.25,-5.41 -5.2,-5.49 -2.95,-0.08 -5.41,2.24 -5.49,5.2"
               inkscape:connector-curvature="0"
               style="fill:#ffffff" /></defs><use
             xlink:href="#SVGID_19_"
             class="st2"
             style="overflow:visible;fill:#ffffff"
             id="use6479"
             x="0"
             y="0"
             width="100%"
             height="100%" /><clipPath
             id="SVGID_20_"><use
               xlink:href="#SVGID_19_"
               style="overflow:visible"
               id="use6481"
               x="0"
               y="0"
               width="100%"
               height="100%" /></clipPath></g></g><g
         id="g6498"><g
           id="g6496"><defs
             id="defs6489"><path
               id="SVGID_21_"
               class="st2"
               d="m 124.88,52.76 c -0.08,2.95 2.25,5.41 5.2,5.5 2.95,0.08 5.41,-2.25 5.49,-5.2 0.08,-2.95 -2.25,-5.41 -5.2,-5.5 -2.95,-0.08 -5.41,2.25 -5.49,5.2"
               inkscape:connector-curvature="0"
               style="fill:#ffffff" /></defs><use
             xlink:href="#SVGID_21_"
             class="st2"
             style="overflow:visible;fill:#ffffff"
             id="use6491"
             x="0"
             y="0"
             width="100%"
             height="100%" /><clipPath
             id="SVGID_22_"><use
               xlink:href="#SVGID_21_"
               style="overflow:visible"
               id="use6493"
               x="0"
               y="0"
               width="100%"
               height="100%" /></clipPath></g></g><g
         id="g6510"><g
           id="g6508"><defs
             id="defs6501"><path
               id="SVGID_23_"
               class="st2"
               d="m 109.08,68.32 c -0.08,2.95 2.25,5.41 5.2,5.49 2.95,0.08 5.41,-2.25 5.49,-5.2 0.08,-2.95 -2.25,-5.41 -5.2,-5.5 -2.95,-0.07 -5.41,2.26 -5.49,5.21"
               inkscape:connector-curvature="0"
               style="fill:#ffffff" /></defs><use
             xlink:href="#SVGID_23_"
             class="st2"
             style="overflow:visible;fill:#ffffff"
             id="use6503"
             x="0"
             y="0"
             width="100%"
             height="100%" /><clipPath
             id="SVGID_24_"><use
               xlink:href="#SVGID_23_"
               style="overflow:visible"
               id="use6505"
               x="0"
               y="0"
               width="100%"
               height="100%" /></clipPath></g></g><g
         id="g6522"><g
           id="g6520"><defs
             id="defs6513"><path
               id="SVGID_25_"
               class="st2"
               d="m 95.12,67.94 c -0.08,2.95 2.25,5.41 5.2,5.49 2.95,0.08 5.41,-2.25 5.49,-5.2 0.08,-2.95 -2.25,-5.41 -5.2,-5.49 -2.95,-0.08 -5.41,2.24 -5.49,5.2"
               inkscape:connector-curvature="0"
               style="fill:#ffffff" /></defs><use
             xlink:href="#SVGID_25_"
             class="st2"
             style="overflow:visible;fill:#ffffff"
             id="use6515"
             x="0"
             y="0"
             width="100%"
             height="100%" /><clipPath
             id="SVGID_26_"><use
               xlink:href="#SVGID_25_"
               style="overflow:visible"
               id="use6517"
               x="0"
               y="0"
               width="100%"
               height="100%" /></clipPath></g></g><g
         id="g6534"><g
           id="g6532"><defs
             id="defs6525"><path
               id="SVGID_27_"
               class="st2"
               d="m 139.49,69.15 c -0.08,2.95 2.25,5.41 5.2,5.49 2.95,0.08 5.41,-2.25 5.49,-5.2 0.08,-2.95 -2.25,-5.41 -5.2,-5.49 -2.95,-0.08 -5.41,2.25 -5.49,5.2"
               inkscape:connector-curvature="0"
               style="fill:#ffffff" /></defs><use
             xlink:href="#SVGID_27_"
             class="st2"
             style="overflow:visible;fill:#ffffff"
             id="use6527"
             x="0"
             y="0"
             width="100%"
             height="100%" /><clipPath
             id="SVGID_28_"><use
               xlink:href="#SVGID_27_"
               style="overflow:visible"
               id="use6529"
               x="0"
               y="0"
               width="100%"
               height="100%" /></clipPath></g></g><g
         id="g6546"><g
           id="g6544"><defs
             id="defs6537"><path
               id="SVGID_29_"
               class="st2"
               d="m 154.26,69.55 c -0.08,2.95 2.25,5.41 5.2,5.49 2.95,0.08 5.41,-2.25 5.5,-5.2 0.08,-2.95 -2.25,-5.41 -5.2,-5.49 -2.96,-0.08 -5.42,2.25 -5.5,5.2"
               inkscape:connector-curvature="0"
               style="fill:#ffffff" /></defs><use
             xlink:href="#SVGID_29_"
             class="st2"
             style="overflow:visible;fill:#ffffff"
             id="use6539"
             x="0"
             y="0"
             width="100%"
             height="100%" /><clipPath
             id="SVGID_30_"><use
               xlink:href="#SVGID_29_"
               style="overflow:visible"
               id="use6541"
               x="0"
               y="0"
               width="100%"
               height="100%" /></clipPath></g></g><g
         id="g6558"><g
           id="g6556"><defs
             id="defs6549"><path
               id="SVGID_31_"
               class="st2"
               d="m 124.44,68.74 c -0.08,2.95 2.25,5.41 5.2,5.5 2.95,0.08 5.41,-2.25 5.49,-5.2 0.08,-2.96 -2.25,-5.42 -5.2,-5.5 -2.95,-0.08 -5.41,2.25 -5.49,5.2"
               inkscape:connector-curvature="0"
               style="fill:#ffffff" /></defs><use
             xlink:href="#SVGID_31_"
             class="st2"
             style="overflow:visible;fill:#ffffff"
             id="use6551"
             x="0"
             y="0"
             width="100%"
             height="100%" /><clipPath
             id="SVGID_32_"><use
               xlink:href="#SVGID_31_"
               style="overflow:visible"
               id="use6553"
               x="0"
               y="0"
               width="100%"
               height="100%" /></clipPath></g></g><g
         id="g6570"><g
           id="g6568"><defs
             id="defs6561"><path
               id="SVGID_33_"
               class="st2"
               d="m 164.41,21.71 c -0.08,2.95 2.25,5.41 5.2,5.49 2.95,0.08 5.41,-2.25 5.5,-5.2 0.08,-2.95 -2.25,-5.41 -5.2,-5.49 -2.96,-0.08 -5.42,2.24 -5.5,5.2"
               inkscape:connector-curvature="0"
               style="fill:#ffffff" /></defs><use
             xlink:href="#SVGID_33_"
             class="st2"
             style="overflow:visible;fill:#ffffff"
             id="use6563"
             x="0"
             y="0"
             width="100%"
             height="100%" /><clipPath
             id="SVGID_34_"><use
               xlink:href="#SVGID_33_"
               style="overflow:visible"
               id="use6565"
               x="0"
               y="0"
               width="100%"
               height="100%" /></clipPath></g></g><g
         id="g6582"><g
           id="g6580"><defs
             id="defs6573"><path
               id="SVGID_35_"
               class="st2"
               d="m 122.02,212.92 c -0.08,2.95 2.25,5.41 5.2,5.49 2.95,0.08 5.41,-2.25 5.49,-5.2 0.08,-2.95 -2.25,-5.41 -5.2,-5.49 -2.95,-0.08 -5.41,2.25 -5.49,5.2"
               inkscape:connector-curvature="0"
               style="fill:#ffffff" /></defs><use
             xlink:href="#SVGID_35_"
             class="st2"
             style="overflow:visible;fill:#ffffff"
             id="use6575"
             x="0"
             y="0"
             width="100%"
             height="100%" /><clipPath
             id="SVGID_36_"><use
               xlink:href="#SVGID_35_"
               style="overflow:visible"
               id="use6577"
               x="0"
               y="0"
               width="100%"
               height="100%" /></clipPath></g></g><g
         id="g6594"><g
           id="g6592"><defs
             id="defs6585"><path
               id="SVGID_37_"
               class="st2"
               d="m 107.4,208.19 c -0.08,2.95 2.25,5.41 5.2,5.5 2.96,0.08 5.41,-2.25 5.5,-5.2 0.08,-2.95 -2.25,-5.41 -5.2,-5.49 -2.96,-0.09 -5.42,2.24 -5.5,5.19"
               inkscape:connector-curvature="0"
               style="fill:#ffffff" /></defs><use
             xlink:href="#SVGID_37_"
             class="st2"
             style="overflow:visible;fill:#ffffff"
             id="use6587"
             x="0"
             y="0"
             width="100%"
             height="100%" /><clipPath
             id="SVGID_38_"><use
               xlink:href="#SVGID_37_"
               style="overflow:visible"
               id="use6589"
               x="0"
               y="0"
               width="100%"
               height="100%" /></clipPath></g></g><g
         id="g6606"><g
           id="g6604"><defs
             id="defs6597"><path
               id="SVGID_39_"
               class="st2"
               d="m 90.53,202.74 c -0.08,2.95 2.25,5.41 5.2,5.49 2.95,0.08 5.41,-2.25 5.49,-5.2 0.08,-2.95 -2.25,-5.41 -5.2,-5.49 -2.95,-0.08 -5.41,2.25 -5.49,5.2"
               inkscape:connector-curvature="0"
               style="fill:#ffffff" /></defs><use
             xlink:href="#SVGID_39_"
             class="st2"
             style="overflow:visible;fill:#ffffff"
             id="use6599"
             x="0"
             y="0"
             width="100%"
             height="100%" /><clipPath
             id="SVGID_40_"><use
               xlink:href="#SVGID_39_"
               style="overflow:visible"
               id="use6601"
               x="0"
               y="0"
               width="100%"
               height="100%" /></clipPath></g></g><g
         id="g6618"><g
           id="g6616"><defs
             id="defs6609"><path
               id="SVGID_41_"
               class="st2"
               d="m 97.97,186.82 c -0.08,2.95 2.25,5.41 5.2,5.49 2.95,0.08 5.41,-2.25 5.49,-5.2 0.08,-2.95 -2.25,-5.41 -5.2,-5.49 -2.95,-0.08 -5.41,2.25 -5.49,5.2"
               inkscape:connector-curvature="0"
               style="fill:#ffffff" /></defs><use
             xlink:href="#SVGID_41_"
             class="st2"
             style="overflow:visible;fill:#ffffff"
             id="use6611"
             x="0"
             y="0"
             width="100%"
             height="100%" /><clipPath
             id="SVGID_42_"><use
               xlink:href="#SVGID_41_"
               style="overflow:visible"
               id="use6613"
               x="0"
               y="0"
               width="100%"
               height="100%" /></clipPath></g></g><g
         id="g6630"><g
           id="g6628"><defs
             id="defs6621"><path
               id="SVGID_43_"
               class="st2"
               d="m 114.24,189.63 c -0.08,2.96 2.25,5.42 5.2,5.5 2.96,0.08 5.41,-2.25 5.49,-5.2 0.08,-2.95 -2.25,-5.41 -5.2,-5.49 -2.95,-0.09 -5.41,2.24 -5.49,5.19"
               inkscape:connector-curvature="0"
               style="fill:#ffffff" /></defs><use
             xlink:href="#SVGID_43_"
             class="st2"
             style="overflow:visible;fill:#ffffff"
             id="use6623"
             x="0"
             y="0"
             width="100%"
             height="100%" /><clipPath
             id="SVGID_44_"><use
               xlink:href="#SVGID_43_"
               style="overflow:visible"
               id="use6625"
               x="0"
               y="0"
               width="100%"
               height="100%" /></clipPath></g></g><g
         id="g6642"><g
           id="g6640"><defs
             id="defs6633"><path
               id="SVGID_45_"
               class="st2"
               d="m 130.38,190.07 c -0.08,2.95 2.25,5.41 5.2,5.49 2.96,0.08 5.41,-2.25 5.49,-5.2 0.08,-2.95 -2.25,-5.41 -5.2,-5.49 -2.95,-0.08 -5.41,2.25 -5.49,5.2"
               inkscape:connector-curvature="0"
               style="fill:#ffffff" /></defs><use
             xlink:href="#SVGID_45_"
             class="st2"
             style="overflow:visible;fill:#ffffff"
             id="use6635"
             x="0"
             y="0"
             width="100%"
             height="100%" /><clipPath
             id="SVGID_46_"><use
               xlink:href="#SVGID_45_"
               style="overflow:visible"
               id="use6637"
               x="0"
               y="0"
               width="100%"
               height="100%" /></clipPath></g></g><g
         id="g6654"><g
           id="g6652"><defs
             id="defs6645"><path
               id="SVGID_47_"
               class="st2"
               d="m 111.96,231.03 c -0.08,2.95 2.25,5.41 5.2,5.49 2.96,0.08 5.41,-2.25 5.49,-5.2 0.08,-2.95 -2.25,-5.41 -5.2,-5.49 -2.95,-0.08 -5.41,2.25 -5.49,5.2"
               inkscape:connector-curvature="0"
               style="fill:#ffffff" /></defs><use
             xlink:href="#SVGID_47_"
             class="st2"
             style="overflow:visible;fill:#ffffff"
             id="use6647"
             x="0"
             y="0"
             width="100%"
             height="100%" /><clipPath
             id="SVGID_48_"><use
               xlink:href="#SVGID_47_"
               style="overflow:visible"
               id="use6649"
               x="0"
               y="0"
               width="100%"
               height="100%" /></clipPath></g></g><g
         id="g6666"><g
           id="g6664"><defs
             id="defs6657"><path
               id="SVGID_49_"
               class="st2"
               d="m 95.84,225.24 c -0.08,2.95 2.25,5.41 5.2,5.5 2.95,0.08 5.41,-2.25 5.49,-5.2 0.08,-2.95 -2.25,-5.41 -5.2,-5.5 -2.95,-0.08 -5.41,2.25 -5.49,5.2"
               inkscape:connector-curvature="0"
               style="fill:#ffffff" /></defs><use
             xlink:href="#SVGID_49_"
             class="st2"
             style="overflow:visible;fill:#ffffff"
             id="use6659"
             x="0"
             y="0"
             width="100%"
             height="100%" /><clipPath
             id="SVGID_50_"><use
               xlink:href="#SVGID_49_"
               style="overflow:visible"
               id="use6661"
               x="0"
               y="0"
               width="100%"
               height="100%" /></clipPath></g></g><g
         id="g6678"><g
           id="g6676"><defs
             id="defs6669"><path
               id="SVGID_51_"
               class="st2"
               d="m 81.73,218.3 c -0.08,2.95 2.25,5.41 5.2,5.5 2.95,0.08 5.41,-2.25 5.49,-5.2 0.08,-2.95 -2.25,-5.41 -5.2,-5.5 -2.95,-0.08 -5.41,2.25 -5.49,5.2"
               inkscape:connector-curvature="0"
               style="fill:#ffffff" /></defs><use
             xlink:href="#SVGID_51_"
             class="st2"
             style="overflow:visible;fill:#ffffff"
             id="use6671"
             x="0"
             y="0"
             width="100%"
             height="100%" /><clipPath
             id="SVGID_52_"><use
               xlink:href="#SVGID_51_"
               style="overflow:visible"
               id="use6673"
               x="0"
               y="0"
               width="100%"
               height="100%" /></clipPath></g></g><g
         id="g6690"><g
           id="g6688"><defs
             id="defs6681"><path
               id="SVGID_53_"
               class="st2"
               d="m 101.87,249.3 c -0.08,2.95 2.25,5.41 5.2,5.49 2.95,0.08 5.41,-2.25 5.49,-5.2 0.08,-2.95 -2.25,-5.41 -5.2,-5.5 -2.95,-0.07 -5.41,2.26 -5.49,5.21"
               inkscape:connector-curvature="0"
               style="fill:#ffffff" /></defs><use
             xlink:href="#SVGID_53_"
             class="st2"
             style="overflow:visible;fill:#ffffff"
             id="use6683"
             x="0"
             y="0"
             width="100%"
             height="100%" /><clipPath
             id="SVGID_54_"><use
               xlink:href="#SVGID_53_"
               style="overflow:visible"
               id="use6685"
               x="0"
               y="0"
               width="100%"
               height="100%" /></clipPath></g></g><g
         id="g6702"><g
           id="g6700"><defs
             id="defs6693"><path
               id="SVGID_55_"
               class="st2"
               d="m 87.43,241.59 c -0.08,2.96 2.25,5.42 5.2,5.5 2.96,0.08 5.41,-2.25 5.49,-5.2 0.08,-2.95 -2.25,-5.41 -5.2,-5.5 -2.95,-0.08 -5.41,2.24 -5.49,5.2"
               inkscape:connector-curvature="0"
               style="fill:#ffffff" /></defs><use
             xlink:href="#SVGID_55_"
             class="st2"
             style="overflow:visible;fill:#ffffff"
             id="use6695"
             x="0"
             y="0"
             width="100%"
             height="100%" /><clipPath
             id="SVGID_56_"><use
               xlink:href="#SVGID_55_"
               style="overflow:visible"
               id="use6697"
               x="0"
               y="0"
               width="100%"
               height="100%" /></clipPath></g></g><g
         id="g6714"><g
           id="g6712"><defs
             id="defs6705"><path
               id="SVGID_57_"
               class="st2"
               d="m 73.43,233.21 c -0.08,2.95 2.25,5.41 5.2,5.49 2.96,0.08 5.41,-2.25 5.49,-5.2 0.08,-2.95 -2.25,-5.41 -5.2,-5.49 -2.95,-0.08 -5.41,2.25 -5.49,5.2"
               inkscape:connector-curvature="0"
               style="fill:#ffffff" /></defs><use
             xlink:href="#SVGID_57_"
             class="st2"
             style="overflow:visible;fill:#ffffff"
             id="use6707"
             x="0"
             y="0"
             width="100%"
             height="100%" /><clipPath
             id="SVGID_58_"><use
               xlink:href="#SVGID_57_"
               style="overflow:visible"
               id="use6709"
               x="0"
               y="0"
               width="100%"
               height="100%" /></clipPath></g></g><g
         id="g6726"><g
           id="g6724"><defs
             id="defs6717"><path
               id="SVGID_59_"
               class="st2"
               d="m 91.51,267.05 c -0.08,2.96 2.25,5.42 5.2,5.5 2.96,0.08 5.41,-2.25 5.49,-5.2 0.08,-2.95 -2.25,-5.42 -5.2,-5.49 -2.95,-0.09 -5.41,2.23 -5.49,5.19"
               inkscape:connector-curvature="0"
               style="fill:#ffffff" /></defs><use
             xlink:href="#SVGID_59_"
             class="st2"
             style="overflow:visible;fill:#ffffff"
             id="use6719"
             x="0"
             y="0"
             width="100%"
             height="100%" /><clipPath
             id="SVGID_60_"><use
               xlink:href="#SVGID_59_"
               style="overflow:visible"
               id="use6721"
               x="0"
               y="0"
               width="100%"
               height="100%" /></clipPath></g></g><g
         id="g6738"><g
           id="g6736"><defs
             id="defs6729"><path
               id="SVGID_61_"
               class="st2"
               d="m 78.1,256.81 c -0.08,2.95 2.25,5.41 5.2,5.49 2.95,0.08 5.41,-2.25 5.49,-5.2 0.08,-2.96 -2.25,-5.42 -5.2,-5.49 -2.95,-0.08 -5.41,2.25 -5.49,5.2"
               inkscape:connector-curvature="0"
               style="fill:#ffffff" /></defs><use
             xlink:href="#SVGID_61_"
             class="st2"
             style="overflow:visible;fill:#ffffff"
             id="use6731"
             x="0"
             y="0"
             width="100%"
             height="100%" /><clipPath
             id="SVGID_62_"><use
               xlink:href="#SVGID_61_"
               style="overflow:visible"
               id="use6733"
               x="0"
               y="0"
               width="100%"
               height="100%" /></clipPath></g></g><g
         id="g6750"><g
           id="g6748"><defs
             id="defs6741"><path
               id="SVGID_63_"
               class="st2"
               d="m 63.45,245.1 c -0.08,2.95 2.25,5.41 5.2,5.49 2.95,0.08 5.41,-2.25 5.49,-5.2 0.08,-2.95 -2.25,-5.41 -5.2,-5.49 -2.95,-0.08 -5.41,2.25 -5.49,5.2"
               inkscape:connector-curvature="0"
               style="fill:#ffffff" /></defs><use
             xlink:href="#SVGID_63_"
             class="st2"
             style="overflow:visible;fill:#ffffff"
             id="use6743"
             x="0"
             y="0"
             width="100%"
             height="100%" /><clipPath
             id="SVGID_64_"><use
               xlink:href="#SVGID_63_"
               style="overflow:visible"
               id="use6745"
               x="0"
               y="0"
               width="100%"
               height="100%" /></clipPath></g></g><g
         id="g6762"><g
           id="g6760"><defs
             id="defs6753"><path
               id="SVGID_65_"
               class="st2"
               d="m 81.2,281.63 c -0.08,2.96 2.25,5.42 5.2,5.5 2.95,0.08 5.41,-2.25 5.49,-5.2 0.08,-2.95 -2.25,-5.41 -5.2,-5.49 -2.95,-0.09 -5.41,2.23 -5.49,5.19"
               inkscape:connector-curvature="0"
               style="fill:#ffffff" /></defs><use
             xlink:href="#SVGID_65_"
             class="st2"
             style="overflow:visible;fill:#ffffff"
             id="use6755"
             x="0"
             y="0"
             width="100%"
             height="100%" /><clipPath
             id="SVGID_66_"><use
               xlink:href="#SVGID_65_"
               style="overflow:visible"
               id="use6757"
               x="0"
               y="0"
               width="100%"
               height="100%" /></clipPath></g></g><g
         id="g6774"><g
           id="g6772"><defs
             id="defs6765"><path
               id="SVGID_67_"
               class="st2"
               d="m 66.48,270.47 c -0.08,2.95 2.25,5.41 5.2,5.5 2.95,0.08 5.41,-2.25 5.49,-5.2 0.08,-2.95 -2.25,-5.41 -5.2,-5.49 -2.95,-0.09 -5.41,2.24 -5.49,5.19"
               inkscape:connector-curvature="0"
               style="fill:#ffffff" /></defs><use
             xlink:href="#SVGID_67_"
             class="st2"
             style="overflow:visible;fill:#ffffff"
             id="use6767"
             x="0"
             y="0"
             width="100%"
             height="100%" /><clipPath
             id="SVGID_68_"><use
               xlink:href="#SVGID_67_"
               style="overflow:visible"
               id="use6769"
               x="0"
               y="0"
               width="100%"
               height="100%" /></clipPath></g></g><g
         id="g6786"><g
           id="g6784"><defs
             id="defs6777"><path
               id="SVGID_69_"
               class="st2"
               d="m 53.01,258.79 c -0.08,2.95 2.25,5.42 5.2,5.49 2.95,0.08 5.41,-2.25 5.49,-5.2 0.08,-2.95 -2.25,-5.41 -5.2,-5.49 -2.95,-0.08 -5.41,2.25 -5.49,5.2"
               inkscape:connector-curvature="0"
               style="fill:#ffffff" /></defs><use
             xlink:href="#SVGID_69_"
             class="st2"
             style="overflow:visible;fill:#ffffff"
             id="use6779"
             x="0"
             y="0"
             width="100%"
             height="100%" /><clipPath
             id="SVGID_70_"><use
               xlink:href="#SVGID_69_"
               style="overflow:visible"
               id="use6781"
               x="0"
               y="0"
               width="100%"
               height="100%" /></clipPath></g></g><g
         id="g6798"><g
           id="g6796"><defs
             id="defs6789"><path
               id="SVGID_71_"
               class="st2"
               d="m 31.68,255.25 c -0.08,2.96 2.25,5.41 5.2,5.5 2.95,0.08 5.42,-2.25 5.5,-5.2 0.08,-2.95 -2.25,-5.41 -5.2,-5.49 -2.96,-0.09 -5.42,2.24 -5.5,5.19"
               inkscape:connector-curvature="0"
               style="fill:#ffffff" /></defs><use
             xlink:href="#SVGID_71_"
             class="st2"
             style="overflow:visible;fill:#ffffff"
             id="use6791"
             x="0"
             y="0"
             width="100%"
             height="100%" /><clipPath
             id="SVGID_72_"><use
               xlink:href="#SVGID_71_"
               style="overflow:visible"
               id="use6793"
               x="0"
               y="0"
               width="100%"
               height="100%" /></clipPath></g></g><g
         id="g6810"><g
           id="g6808"><defs
             id="defs6801"><path
               id="SVGID_73_"
               class="st2"
               d="m 40.41,271.01 c -0.08,2.95 2.25,5.41 5.2,5.49 2.95,0.08 5.41,-2.25 5.49,-5.2 0.08,-2.95 -2.25,-5.41 -5.2,-5.5 -2.95,-0.08 -5.41,2.25 -5.49,5.21"
               inkscape:connector-curvature="0"
               style="fill:#ffffff" /></defs><use
             xlink:href="#SVGID_73_"
             class="st2"
             style="overflow:visible;fill:#ffffff"
             id="use6803"
             x="0"
             y="0"
             width="100%"
             height="100%" /><clipPath
             id="SVGID_74_"><use
               xlink:href="#SVGID_73_"
               style="overflow:visible"
               id="use6805"
               x="0"
               y="0"
               width="100%"
               height="100%" /></clipPath></g></g><g
         id="g6822"><g
           id="g6820"><defs
             id="defs6813"><path
               id="SVGID_75_"
               class="st2"
               d="m 53.56,282 c -0.08,2.96 2.25,5.42 5.2,5.49 2.95,0.08 5.41,-2.25 5.49,-5.2 0.08,-2.95 -2.25,-5.41 -5.2,-5.49 -2.95,-0.08 -5.41,2.25 -5.49,5.2"
               inkscape:connector-curvature="0"
               style="fill:#ffffff" /></defs><use
             xlink:href="#SVGID_75_"
             class="st2"
             style="overflow:visible;fill:#ffffff"
             id="use6815"
             x="0"
             y="0"
             width="100%"
             height="100%" /><clipPath
             id="SVGID_76_"><use
               xlink:href="#SVGID_75_"
               style="overflow:visible"
               id="use6817"
               x="0"
               y="0"
               width="100%"
               height="100%" /></clipPath></g></g><g
         id="g6834"><g
           id="g6832"><defs
             id="defs6825"><path
               id="SVGID_77_"
               class="st2"
               d="m 66.69,293.59 c -0.08,2.96 2.25,5.41 5.2,5.49 2.95,0.08 5.41,-2.25 5.49,-5.2 0.08,-2.95 -2.25,-5.41 -5.2,-5.49 -2.95,-0.08 -5.41,2.25 -5.49,5.2"
               inkscape:connector-curvature="0"
               style="fill:#ffffff" /></defs><use
             xlink:href="#SVGID_77_"
             class="st2"
             style="overflow:visible;fill:#ffffff"
             id="use6827"
             x="0"
             y="0"
             width="100%"
             height="100%" /><clipPath
             id="SVGID_78_"><use
               xlink:href="#SVGID_77_"
               style="overflow:visible"
               id="use6829"
               x="0"
               y="0"
               width="100%"
               height="100%" /></clipPath></g></g><g
         id="g6846"><g
           id="g6844"><defs
             id="defs6837"><path
               id="SVGID_79_"
               class="st2"
               d="m 81.85,303.2 c -0.08,2.95 2.25,5.41 5.2,5.49 2.95,0.08 5.41,-2.25 5.49,-5.2 0.08,-2.95 -2.25,-5.41 -5.2,-5.49 -2.95,-0.08 -5.41,2.25 -5.49,5.2"
               inkscape:connector-curvature="0"
               style="fill:#ffffff" /></defs><use
             xlink:href="#SVGID_79_"
             class="st2"
             style="overflow:visible;fill:#ffffff"
             id="use6839"
             x="0"
             y="0"
             width="100%"
             height="100%" /><clipPath
             id="SVGID_80_"><use
               xlink:href="#SVGID_79_"
               style="overflow:visible"
               id="use6841"
               x="0"
               y="0"
               width="100%"
               height="100%" /></clipPath></g></g><g
         id="g6858"><g
           id="g6856"><defs
             id="defs6849"><path
               id="SVGID_81_"
               class="st2"
               d="m 29.61,284.63 c -0.08,2.95 2.25,5.41 5.2,5.49 2.95,0.08 5.41,-2.25 5.49,-5.2 0.08,-2.95 -2.25,-5.41 -5.2,-5.49 -2.95,-0.08 -5.41,2.25 -5.49,5.2"
               inkscape:connector-curvature="0"
               style="fill:#ffffff" /></defs><use
             xlink:href="#SVGID_81_"
             class="st2"
             style="overflow:visible;fill:#ffffff"
             id="use6851"
             x="0"
             y="0"
             width="100%"
             height="100%" /><clipPath
             id="SVGID_82_"><use
               xlink:href="#SVGID_81_"
               style="overflow:visible"
               id="use6853"
               x="0"
               y="0"
               width="100%"
               height="100%" /></clipPath></g></g><g
         id="g6870"><g
           id="g6868"><defs
             id="defs6861"><path
               id="SVGID_83_"
               class="st2"
               d="m 42.75,295.63 c -0.08,2.95 2.25,5.41 5.2,5.49 2.95,0.08 5.41,-2.25 5.49,-5.2 0.08,-2.95 -2.25,-5.42 -5.2,-5.5 -2.95,-0.08 -5.41,2.25 -5.49,5.21"
               inkscape:connector-curvature="0"
               style="fill:#ffffff" /></defs><use
             xlink:href="#SVGID_83_"
             class="st2"
             style="overflow:visible;fill:#ffffff"
             id="use6863"
             x="0"
             y="0"
             width="100%"
             height="100%" /><clipPath
             id="SVGID_84_"><use
               xlink:href="#SVGID_83_"
               style="overflow:visible"
               id="use6865"
               x="0"
               y="0"
               width="100%"
               height="100%" /></clipPath></g></g><g
         id="g6882"><g
           id="g6880"><defs
             id="defs6873"><path
               id="SVGID_85_"
               class="st2"
               d="m 55.88,307.22 c -0.08,2.95 2.25,5.41 5.2,5.49 2.95,0.08 5.41,-2.25 5.49,-5.2 0.08,-2.95 -2.25,-5.41 -5.2,-5.5 -2.95,-0.07 -5.41,2.25 -5.49,5.21"
               inkscape:connector-curvature="0"
               style="fill:#ffffff" /></defs><use
             xlink:href="#SVGID_85_"
             class="st2"
             style="overflow:visible;fill:#ffffff"
             id="use6875"
             x="0"
             y="0"
             width="100%"
             height="100%" /><clipPath
             id="SVGID_86_"><use
               xlink:href="#SVGID_85_"
               style="overflow:visible"
               id="use6877"
               x="0"
               y="0"
               width="100%"
               height="100%" /></clipPath></g></g><g
         id="g6894"><g
           id="g6892"><defs
             id="defs6885"><path
               id="SVGID_87_"
               class="st2"
               d="m 31.43,309.8 c -0.08,2.95 2.25,5.41 5.2,5.49 2.96,0.08 5.41,-2.25 5.49,-5.2 0.08,-2.95 -2.25,-5.41 -5.2,-5.49 -2.95,-0.08 -5.41,2.25 -5.49,5.2"
               inkscape:connector-curvature="0"
               style="fill:#ffffff" /></defs><use
             xlink:href="#SVGID_87_"
             class="st2"
             style="overflow:visible;fill:#ffffff"
             id="use6887"
             x="0"
             y="0"
             width="100%"
             height="100%" /><clipPath
             id="SVGID_88_"><use
               xlink:href="#SVGID_87_"
               style="overflow:visible"
               id="use6889"
               x="0"
               y="0"
               width="100%"
               height="100%" /></clipPath></g></g></g></g></svg>